<svg xmlns="http://www.w3.org/2000/svg" xmlns:xlink="http://www.w3.org/1999/xlink" width="500" zoomAndPan="magnify" viewBox="0 0 375 374.999991" height="500" preserveAspectRatio="xMidYMid meet" version="1.0"><defs><clipPath id="8a0c5a9423"><path d="M 65.859375 63 L 175 63 L 175 267 L 65.859375 267 Z M 65.859375 63 " clip-rule="nonzero"/></clipPath><clipPath id="86383ac24f"><path d="M 200 108 L 308.859375 108 L 308.859375 312 L 200 312 Z M 200 108 " clip-rule="nonzero"/></clipPath></defs><g clip-path="url(#8a0c5a9423)"><path fill="#c11cd3" d="M 65.917969 266.011719 L 174.902344 157.027344 L 174.902344 63.765625 L 65.917969 172.75 Z M 65.917969 266.011719 " fill-opacity="1" fill-rule="nonzero"/></g><g clip-path="url(#86383ac24f)"><path fill="#c11cd3" d="M 262.464844 155.613281 L 200.113281 217.964844 L 200.113281 311.230469 L 309.09375 202.246094 L 309.09375 108.980469 Z M 262.464844 155.613281 " fill-opacity="1" fill-rule="nonzero"/></g><path fill="#db2777" d="M 73.335938 273.433594 L 174.90625 374.992188 L 174.90625 281.742188 L 119.964844 226.804688 Z M 73.335938 273.433594 " fill-opacity="1" fill-rule="nonzero"/><path fill="#db2777" d="M 200.113281 0 L 200.113281 93.25 L 255.046875 148.195312 L 301.679688 101.5625 Z M 200.113281 0 " fill-opacity="1" fill-rule="nonzero"/></svg>